# xmcd CD database file
# Copyright (C) 1993-1998 Ti Kan
# 
# Track frame offsets:
#     150
#     19737
#     32955
#     50522
#     68492
#     84055
# 
# Disc length: 1259 seconds
# 
# Revision: 1
# Processed by: cddbd v1.4b41PL1 Copyright (c) Steve Scherf et al.
# Submitted via: DiscPlay 4.0.4
# 
DISCID=3e04e906
DTITLE=Hobex - payback EP
DYEAR=1900
DGENRE=
TTITLE0=let me live
TTITLE1=rollin'
TTITLE2=cutthroat
TTITLE3=moneybaby
TTITLE4=feelin' a little down
TTITLE5=don't even say ...
EXTD=
EXTT0=
EXTT1=
EXTT2=
EXTT3=
EXTT4=
EXTT5=
PLAYORDER=
